<svg width="120" height="17" viewBox="0 0 120 17" fill="none" xmlns="http://www.w3.org/2000/svg">
<path d="M3.504 17C3.24 17 3.004 16.9 2.796 16.7C2.596 16.492 2.496 16.256 2.496 15.992V1.736C2.496 1.472 2.596 1.24 2.796 1.04C3.004 0.831999 3.24 0.727999 3.504 0.727999C3.768 0.727999 4 0.831999 4.2 1.04C4.408 1.24 4.512 1.472 4.512 1.736V7.76H14.304V1.736C14.304 1.472 14.404 1.24 14.604 1.04C14.804 0.831999 15.04 0.727999 15.312 0.727999C15.576 0.727999 15.808 0.831999 16.008 1.04C16.216 1.24 16.32 1.472 16.32 1.736V15.992C16.32 16.256 16.216 16.492 16.008 16.7C15.808 16.9 15.576 17 15.312 17C15.04 17 14.804 16.9 14.604 16.7C14.404 16.492 14.304 16.256 14.304 15.992V9.776H4.512V15.992C4.512 16.256 4.408 16.492 4.2 16.7C4 16.9 3.768 17 3.504 17ZM27.5723 17C25.7403 17 24.3843 16.564 23.5043 15.692C22.6323 14.812 22.1963 13.456 22.1963 11.624V1.736C22.1963 1.4 22.2803 1.148 22.4483 0.98C22.6163 0.811999 22.8683 0.727999 23.2043 0.727999C23.5403 0.727999 23.7923 0.811999 23.9603 0.98C24.1283 1.148 24.2123 1.4 24.2123 1.736V11.624C24.2123 12.48 24.3123 13.152 24.5123 13.64C24.7203 14.128 25.0683 14.476 25.5563 14.684C26.0443 14.884 26.7163 14.984 27.5723 14.984H30.4523C31.3083 14.984 31.9803 14.884 32.4683 14.684C32.9563 14.476 33.3003 14.128 33.5003 13.64C33.7083 13.152 33.8123 12.48 33.8123 11.624V1.736C33.8123 1.4 33.8963 1.148 34.0643 0.98C34.2323 0.811999 34.4843 0.727999 34.8203 0.727999C35.1563 0.727999 35.4083 0.811999 35.5763 0.98C35.7443 1.148 35.8283 1.4 35.8283 1.736V11.624C35.8283 13.456 35.3923 14.812 34.5203 15.692C33.6483 16.564 32.2923 17 30.4523 17H27.5723ZM42.6993 17C42.0273 17 41.6913 16.664 41.6913 15.992V1.736C41.6913 1.064 42.0273 0.727999 42.6993 0.727999H48.9633C50.2353 0.727999 51.2113 1.064 51.8913 1.736C52.5793 2.408 52.9233 3.368 52.9233 4.616V5.264C52.9233 6.344 52.5833 7.18 51.9033 7.772C53.1753 8.484 53.8113 9.784 53.8113 11.672V12.488C53.8113 13.96 53.4193 15.08 52.6353 15.848C51.8593 16.616 50.7393 17 49.2753 17H42.6993ZM43.7073 14.984H49.2753C50.1793 14.984 50.8233 14.792 51.2073 14.408C51.5993 14.016 51.7953 13.376 51.7953 12.488V11.672C51.7953 10.784 51.6073 10.152 51.2313 9.776C50.8553 9.392 50.2033 9.2 49.2753 9.2H43.7073V14.984ZM43.7073 7.184H49.3953C49.9793 7.184 50.3753 7.004 50.5833 6.644C50.7993 6.284 50.9073 5.824 50.9073 5.264V4.616C50.9073 3.92 50.7633 3.436 50.4753 3.164C50.1873 2.884 49.6833 2.744 48.9633 2.744H43.7073V7.184ZM68.7278 4.832C69.3998 4.832 69.7358 5.168 69.7358 5.84V15.992C69.7358 16.664 69.3998 17 68.7278 17C68.0558 17 67.7198 16.664 67.7198 15.992V15.596C66.8718 16.532 65.6238 17 63.9758 17H63.3038C61.7038 17 60.5198 16.616 59.7518 15.848C58.9838 15.08 58.5998 13.896 58.5998 12.296V5.84C58.5998 5.168 58.9358 4.832 59.6078 4.832C60.2798 4.832 60.6158 5.168 60.6158 5.84V12.296C60.6158 13.344 60.8038 14.056 61.1798 14.432C61.5638 14.8 62.2718 14.984 63.3038 14.984H63.9758C64.9358 14.984 65.7718 14.876 66.4838 14.66C67.1958 14.436 67.6078 14.088 67.7198 13.616V5.84C67.7198 5.168 68.0558 4.832 68.7278 4.832ZM78.5864 17C77.5704 17 76.7664 16.792 76.1744 16.376C75.5824 15.952 75.2024 15.32 75.0344 14.48C74.9784 14.144 75.0424 13.88 75.2264 13.688C75.4184 13.496 75.6824 13.4 76.0184 13.4C76.3464 13.4 76.5824 13.484 76.7264 13.652C76.8784 13.812 77.0024 14.056 77.0984 14.384C77.1944 14.624 77.3544 14.784 77.5784 14.864C77.8104 14.944 78.1464 14.984 78.5864 14.984H82.5224C83.1464 14.984 83.5664 14.884 83.7824 14.684C83.9984 14.476 84.1064 14.048 84.1064 13.4C84.1064 12.76 83.9984 12.336 83.7824 12.128C83.5664 11.92 83.1464 11.816 82.5224 11.816H78.6584C77.5064 11.816 76.6384 11.524 76.0544 10.94C75.4704 10.356 75.1784 9.488 75.1784 8.336C75.1784 7.16 75.4624 6.284 76.0304 5.708C76.6064 5.124 77.4824 4.832 78.6584 4.832H82.4024C84.2824 4.832 85.3944 5.624 85.7384 7.208C85.8024 7.544 85.7384 7.804 85.5464 7.988C85.3544 8.172 85.0904 8.264 84.7544 8.264C84.4424 8.264 84.2104 8.184 84.0584 8.024C83.9064 7.856 83.7864 7.624 83.6984 7.328C83.6024 7.136 83.4544 7.008 83.2544 6.944C83.0624 6.88 82.7784 6.848 82.4024 6.848H78.6584C78.0504 6.848 77.6544 6.94 77.4704 7.124C77.2864 7.308 77.1944 7.712 77.1944 8.336C77.1944 8.912 77.2904 9.3 77.4824 9.5C77.6824 9.7 78.0744 9.8 78.6584 9.8H82.5224C83.7224 9.8 84.6224 10.1 85.2224 10.7C85.8224 11.3 86.1224 12.2 86.1224 13.4C86.1224 14.608 85.8224 15.512 85.2224 16.112C84.6224 16.704 83.7224 17 82.5224 17H78.5864ZM95.5303 17C93.9383 17 92.7543 16.616 91.9783 15.848C91.2103 15.072 90.8263 13.888 90.8263 12.296V9.512C90.8263 7.912 91.2063 6.728 91.9663 5.96C92.7343 5.192 93.9223 4.816 95.5303 4.832H97.4983C98.6903 4.832 99.6263 5.032 100.306 5.432C100.994 5.832 101.434 6.448 101.626 7.28C101.698 7.616 101.638 7.876 101.446 8.06C101.262 8.244 100.994 8.336 100.642 8.336C100.33 8.336 100.102 8.256 99.9583 8.096C99.8143 7.936 99.6823 7.712 99.5623 7.424C99.4423 7.208 99.2223 7.06 98.9023 6.98C98.5823 6.892 98.1143 6.848 97.4983 6.848H95.5303C94.4983 6.832 93.7903 7.012 93.4063 7.388C93.0303 7.756 92.8423 8.464 92.8423 9.512V12.296C92.8423 13.336 93.0303 14.044 93.4063 14.42C93.7903 14.796 94.4983 14.984 95.5303 14.984H97.4983C98.1143 14.984 98.5823 14.944 98.9023 14.864C99.2223 14.776 99.4423 14.624 99.5623 14.408C99.6823 14.104 99.8143 13.876 99.9583 13.724C100.11 13.572 100.346 13.496 100.666 13.496C101.002 13.496 101.262 13.588 101.446 13.772C101.638 13.956 101.698 14.216 101.626 14.552C101.434 15.376 100.994 15.992 100.306 16.4C99.6263 16.8 98.6903 17 97.4983 17H95.5303ZM110.092 17C108.748 17 107.748 16.672 107.092 16.016C106.436 15.36 106.108 14.36 106.108 13.016C106.108 11.672 106.432 10.672 107.08 10.016C107.736 9.36 108.74 9.032 110.092 9.032H115.168C115.12 8.192 114.9 7.62 114.508 7.316C114.116 7.004 113.444 6.848 112.492 6.848H111.1C110.3 6.848 109.704 6.904 109.312 7.016C108.92 7.12 108.644 7.312 108.484 7.592C108.34 7.928 108.192 8.16 108.04 8.288C107.888 8.416 107.66 8.48 107.356 8.48C107.02 8.48 106.756 8.388 106.564 8.204C106.372 8.012 106.316 7.76 106.396 7.448C106.636 6.544 107.136 5.884 107.896 5.468C108.664 5.044 109.732 4.832 111.1 4.832H112.492C114.092 4.832 115.276 5.216 116.044 5.984C116.812 6.752 117.196 7.936 117.196 9.536V15.992C117.196 16.664 116.86 17 116.188 17C115.516 17 115.18 16.664 115.18 15.992V15.452C114.324 16.484 113.076 17 111.436 17H110.092ZM110.092 14.984H111.436C112.028 14.984 112.584 14.932 113.104 14.828C113.624 14.716 114.068 14.516 114.436 14.228C114.812 13.94 115.06 13.528 115.18 12.992V11.048H110.092C109.3 11.048 108.772 11.18 108.508 11.444C108.252 11.708 108.124 12.232 108.124 13.016C108.124 13.808 108.252 14.336 108.508 14.6C108.772 14.856 109.3 14.984 110.092 14.984Z" fill="white"/>
</svg>
