<svg width="64" height="64" viewBox="0 0 64 64" fill="none" xmlns="http://www.w3.org/2000/svg">
<g clip-path="url(#clip0_69_1)">
<rect width="64" height="64" rx="3" fill="#222221"/>
<path d="M20.008 49C19.48 49 19.008 48.8 18.592 48.4C18.192 47.984 17.992 47.512 17.992 46.984V18.472C17.992 17.944 18.192 17.48 18.592 17.08C19.008 16.664 19.48 16.456 20.008 16.456C20.536 16.456 21 16.664 21.4 17.08C21.816 17.48 22.024 17.944 22.024 18.472V30.52H41.608V18.472C41.608 17.944 41.808 17.48 42.208 17.08C42.608 16.664 43.08 16.456 43.624 16.456C44.152 16.456 44.616 16.664 45.016 17.08C45.432 17.48 45.64 17.944 45.64 18.472V46.984C45.64 47.512 45.432 47.984 45.016 48.4C44.616 48.8 44.152 49 43.624 49C43.08 49 42.608 48.8 42.208 48.4C41.808 47.984 41.608 47.512 41.608 46.984V34.552H22.024V46.984C22.024 47.512 21.816 47.984 21.4 48.4C21 48.8 20.536 49 20.008 49Z" fill="#26CAD3"/>
</g>
<defs>
<clipPath id="clip0_69_1">
<rect width="64" height="64" fill="white"/>
</clipPath>
</defs>
</svg>
